<?xml version="1.0" encoding="UTF-8" standalone="yes"?><svg xmlns="http://www.w3.org/2000/svg" xmlns:xlink="http://www.w3.org/1999/xlink" height="405pt" style="width:510px;height:405px;" version="1.1" viewBox="0 0 510 405" width="510pt"><defs><filter height="300%" id="f1" width="300%" x="-1" y="-1"><feGaussianBlur result="blurOut" stdDeviation="2.0"/><feColorMatrix in="blurOut" result="blurOut2" type="matrix" values="0 0 0 0 0 0 0 0 0 0 0 0 0 0 0 0 0 0 .4 0"/><feOffset dx="4.0" dy="4.0" in="blurOut2" result="blurOut3"/><feBlend in="SourceGraphic" in2="blurOut3" mode="normal"/></filter></defs><g><text fill="#000000" font-family="sans-serif" font-size="18" lengthAdjust="spacingAndGlyphs" textLength="363" x="79.5" y="16.708">User ARCH-67's Use cases from PRD-219</text><ellipse cx="260" cy="39.4531" fill="#FEFECE" filter="url(#f1)" rx="8" ry="8" style="stroke: #A80036; stroke-width: 2.0;"/><path d="M260,47.4531 L260,74.4531 M247,55.4531 L273,55.4531 M260,74.4531 L247,89.4531 M260,74.4531 L273,89.4531 " fill="#FEFECE" filter="url(#f1)" style="stroke: #A80036; stroke-width: 2.0;"/><text fill="#000000" font-family="sans-serif" font-size="14" lengthAdjust="spacingAndGlyphs" textLength="76" x="222" y="109.4482">Cloud User</text><ellipse cx="266.0262" cy="380.9584" fill="#FEFECE" filter="url(#f1)" rx="78.0262" ry="18.0052" style="stroke: #A80036; stroke-width: 1.5;"/><text fill="#000000" font-family="sans-serif" font-size="14" lengthAdjust="spacingAndGlyphs" textLength="126" x="203.0262" y="385.6068">Perform Operation</text><ellipse cx="266.4604" cy="194.9452" fill="#FEFECE" filter="url(#f1)" rx="95.4604" ry="21.4921" style="stroke: #A80036; stroke-width: 1.5;"/><text fill="#000000" font-family="sans-serif" font-size="14" lengthAdjust="spacingAndGlyphs" textLength="166" x="183.4604" y="199.5936">React to Region Outage</text><ellipse cx="449.9117" cy="194.9768" fill="#FEFECE" filter="url(#f1)" rx="53.9117" ry="14.5236" style="stroke: #A80036; stroke-width: 1.5;"/><text fill="#000000" font-family="sans-serif" font-size="14" lengthAdjust="spacingAndGlyphs" textLength="72" x="413.9117" y="199.6252">euca2ools</text><ellipse cx="70.8237" cy="194.8179" fill="#FEFECE" filter="url(#f1)" rx="64.8237" ry="15.3647" style="stroke: #A80036; stroke-width: 1.5;"/><text fill="#000000" font-family="sans-serif" font-size="14" lengthAdjust="spacingAndGlyphs" textLength="93" x="24.3237" y="199.4663">User Console</text><polygon fill="#FBFB77" filter="url(#f1)" points="203,277.4531,203,302.5859,329,302.5859,329,287.4531,319,277.4531,203,277.4531" style="stroke: #A80036; stroke-width: 1.0;"/><line style="stroke: #A80036; stroke-width: 1.0;" x1="319" x2="319" y1="277.4531" y2="287.4531"/><line style="stroke: #A80036; stroke-width: 1.0;" x1="329" x2="319" y1="287.4531" y2="287.4531"/><text fill="#000000" font-family="sans-serif" font-size="13" lengthAdjust="spacingAndGlyphs" textLength="105" x="209" y="294.52">Switch endpoint.</text><path d="M86.9577,210.1741 C121.676,243.2901 204.132,321.941 243.856,359.8316 " fill="none" style="stroke: #A80036; stroke-width: 1.0;"/><polygon fill="#A80036" points="247.564,363.3683,243.8129,354.2618,243.9462,359.9171,238.2909,360.0503,247.564,363.3683" style="stroke: #A80036; stroke-width: 1.0;"/><path d="M136.127,194.9531 C145.991,194.9531 155.855,194.9531 165.72,194.9531 " fill="none" style="stroke: #A80036; stroke-width: 1.0;"/><polygon fill="#A80036" points="170.878,194.9531,161.878,190.9531,165.878,194.9531,161.878,198.9531,170.878,194.9531" style="stroke: #A80036; stroke-width: 1.0;"/><path d="M436.855,209.1161 C417.455,229.9321 379.898,269.8961 347,302.9531 C327.703,322.3433 305.263,343.8759 288.902,359.396 " fill="none" style="stroke: #A80036; stroke-width: 1.0;"/><polygon fill="#A80036" points="284.879,363.2073,294.1637,359.9218,288.5089,359.7687,288.6619,354.1139,284.879,363.2073" style="stroke: #A80036; stroke-width: 1.0;"/><path d="M395.908,194.9531 C386.066,194.9531 376.224,194.9531 366.381,194.9531 " fill="none" style="stroke: #A80036; stroke-width: 1.0;"/><polygon fill="#A80036" points="361.234,194.9531,370.234,198.9531,366.234,194.9531,370.234,190.9531,361.234,194.9531" style="stroke: #A80036; stroke-width: 1.0;"/><path d="M221.753,96.0461 C184.797,120.2931 129.795,156.3791 97.447,177.6021 " fill="none" style="stroke: #A80036; stroke-width: 1.0;"/><polygon fill="#A80036" points="93.2307,180.3681,102.9498,178.7748,97.4111,177.625,98.5609,172.0863,93.2307,180.3681" style="stroke: #A80036; stroke-width: 1.0;"/><path d="M298.449,96.0461 C336.224,120.6991 392.753,157.5921 425.029,178.6561 " fill="none" style="stroke: #A80036; stroke-width: 1.0;"/><polygon fill="#A80036" points="429.226,181.3951,423.8755,173.1264,425.0389,178.6623,419.503,179.8257,429.226,181.3951" style="stroke: #A80036; stroke-width: 1.0;"/><path d="M266,216.5101 C266,235.2321 266,261.7121 266,277.2321 " fill="none" style="stroke: #A80036; stroke-width: 1.0; stroke-dasharray: 7.0,7.0;"/><path d="M266,302.6063 C266,316.7689 266,340.0228 266,357.5257 " fill="none" style="stroke: #A80036; stroke-width: 1.0; stroke-dasharray: 7.0,7.0;"/><polygon fill="#A80036" points="266,362.7566,270,353.7566,266,357.7566,262,353.7566,266,362.7566" style="stroke: #A80036; stroke-width: 1.0;"/></g></svg>