<?xml version="1.0" encoding="UTF-8" standalone="yes"?><svg xmlns="http://www.w3.org/2000/svg" xmlns:xlink="http://www.w3.org/1999/xlink" height="301pt" style="width:364px;height:301px;" version="1.1" viewBox="0 0 364 301" width="364pt"><defs><filter height="300%" id="f1" width="300%" x="-1" y="-1"><feGaussianBlur result="blurOut" stdDeviation="2.0"/><feColorMatrix in="blurOut" result="blurOut2" type="matrix" values="0 0 0 0 0 0 0 0 0 0 0 0 0 0 0 0 0 0 .4 0"/><feOffset dx="4.0" dy="4.0" in="blurOut2" result="blurOut3"/><feBlend in="SourceGraphic" in2="blurOut3" mode="normal"/></filter></defs><g><text fill="#000000" font-family="sans-serif" font-size="18" lengthAdjust="spacingAndGlyphs" textLength="363" x="0" y="16.708">User ARCH-67's Use cases from PRD-219</text><ellipse cx="63" cy="39.4531" fill="#FEFECE" filter="url(#f1)" rx="8" ry="8" style="stroke: #A80036; stroke-width: 2.0;"/><path d="M63,47.4531 L63,74.4531 M50,55.4531 L76,55.4531 M63,74.4531 L50,89.4531 M63,74.4531 L76,89.4531 " fill="#FEFECE" filter="url(#f1)" style="stroke: #A80036; stroke-width: 2.0;"/><text fill="#000000" font-family="sans-serif" font-size="14" lengthAdjust="spacingAndGlyphs" textLength="76" x="25" y="109.4482">Cloud User</text><ellipse cx="147.0262" cy="276.9584" fill="#FEFECE" filter="url(#f1)" rx="78.0262" ry="18.0052" style="stroke: #A80036; stroke-width: 1.5;"/><text fill="#000000" font-family="sans-serif" font-size="14" lengthAdjust="spacingAndGlyphs" textLength="126" x="84.0262" y="281.6068">Perform Operation</text><ellipse cx="231.4604" cy="70.9452" fill="#FEFECE" filter="url(#f1)" rx="95.4604" ry="21.4921" style="stroke: #A80036; stroke-width: 1.5;"/><text fill="#000000" font-family="sans-serif" font-size="14" lengthAdjust="spacingAndGlyphs" textLength="166" x="148.4604" y="75.5936">React to Region Outage</text><polygon fill="#FBFB77" filter="url(#f1)" points="155,173.4531,155,198.5859,281,198.5859,281,183.4531,271,173.4531,155,173.4531" style="stroke: #A80036; stroke-width: 1.0;"/><line style="stroke: #A80036; stroke-width: 1.0;" x1="271" x2="271" y1="173.4531" y2="183.4531"/><line style="stroke: #A80036; stroke-width: 1.0;" x1="281" x2="271" y1="183.4531" y2="183.4531"/><text fill="#000000" font-family="sans-serif" font-size="13" lengthAdjust="spacingAndGlyphs" textLength="105" x="161" y="190.52">Switch endpoint.</text><path d="M79.9987,112.6401 C97.4075,155.3331 123.8265,220.1228 137.717,254.1879 " fill="none" style="stroke: #A80036; stroke-width: 1.0;"/><polygon fill="#A80036" points="139.673,258.9846,139.9789,249.1405,137.7852,254.3547,132.571,252.161,139.673,258.9846" style="stroke: #A80036; stroke-width: 1.0;"/><path d="M101.0625,70.9531 C110.9317,70.9531 120.8008,70.9531 130.67,70.9531 " fill="none" style="stroke: #A80036; stroke-width: 1.0;"/><polygon fill="#A80036" points="135.831,70.9531,126.831,66.9531,130.831,70.9531,126.831,74.9531,135.831,70.9531" style="stroke: #A80036; stroke-width: 1.0;"/><path d="M228.555,92.5841 C225.863,116.3971 221.626,153.8771 219.429,173.3151 " fill="none" style="stroke: #A80036; stroke-width: 1.0; stroke-dasharray: 7.0,7.0;"/><path d="M208.128,198.6063 C196.817,213.1031 178.074,237.1254 164.319,254.7551 " fill="none" style="stroke: #A80036; stroke-width: 1.0; stroke-dasharray: 7.0,7.0;"/><polygon fill="#A80036" points="160.937,259.0898,169.6265,254.4538,164.0123,255.1475,163.3187,249.5333,160.937,259.0898" style="stroke: #A80036; stroke-width: 1.0;"/></g></svg>