<?xml version="1.0" encoding="UTF-8" standalone="yes"?><svg xmlns="http://www.w3.org/2000/svg" xmlns:xlink="http://www.w3.org/1999/xlink" height="1007.9661pt" style="width:486px;height:1007px;" version="1.1" viewBox="0 0 486 1007" width="486.8018pt"><defs><filter height="300%" id="f1" width="300%" x="-1" y="-1"><feGaussianBlur result="blurOut" stdDeviation="1.6363085930794703"/><feColorMatrix in="blurOut" result="blurOut2" type="matrix" values="0 0 0 0 0 0 0 0 0 0 0 0 0 0 0 0 0 0 .4 0"/><feOffset dx="3.2726171861589406" dy="3.2726171861589406" in="blurOut2" result="blurOut3"/><feBlend in="SourceGraphic" in2="blurOut3" mode="normal"/></filter></defs><g><text fill="#000000" font-family="Arial" font-size="19.6357" lengthAdjust="spacingAndGlyphs" textLength="175.9032" x="153.4039" y="18.7392">Architecture Tracing</text><path d="M339.125,6.2161 C338.225,6.2161 337.4134,6.5826 336.8243,7.188 C336.2189,7.7771 335.8523,8.5887 335.8523,9.4887 C335.8523,10.3886 336.2189,11.2003 336.8243,11.7893 L342.3976,17.415 L347.9708,11.7893 C348.5763,11.1839 348.9428,10.3886 348.9428,9.4887 C348.9428,8.5887 348.5763,7.7771 347.9708,7.188 C347.3818,6.5826 346.5702,6.2161 345.6702,6.2161 C344.7702,6.2161 343.9586,6.5826 343.3695,7.188 C342.7641,7.7771 342.3976,8.5887 342.3976,9.4887 C342.3976,8.5887 342.031,7.7771 341.4256,7.188 C340.8365,6.5826 340.0249,6.2161 339.125,6.2161 " fill="#000000" style="stroke: ; stroke-width: 0.0; stroke-dasharray: ;"/><path d="M121.0868,47.9419 C121.0868,45.4875 122.7231,43.8512 125.1776,43.8512 C127.6321,43.8512 129.2684,45.4875 129.2684,47.9419 C129.2684,45.4875 130.9047,43.8512 133.3592,43.8512 C135.8136,43.8512 137.4499,45.4875 137.4499,47.9419 C137.4499,45.4875 139.0862,43.8512 141.5407,43.8512 C143.9952,43.8512 145.6315,45.4875 145.6315,47.9419 C145.6315,45.4875 147.2678,43.8512 149.7222,43.8512 C152.1767,43.8512 153.813,45.4875 153.813,47.9419 C153.813,45.4875 155.4493,43.8512 157.9038,43.8512 C160.3582,43.8512 161.9946,45.4875 161.9946,47.9419 C161.9946,45.4875 163.6309,43.8512 166.0853,43.8512 C168.5398,43.8512 170.1761,45.4875 170.1761,47.9419 C170.1761,45.4875 171.8124,43.8512 174.2669,43.8512 C176.7213,43.8512 178.3576,45.4875 178.3576,47.9419 C178.3576,45.4875 179.9939,43.8512 182.4484,43.8512 C184.9029,43.8512 186.5392,45.4875 186.5392,47.9419 C186.5392,45.4875 188.1755,43.8512 190.63,43.8512 C193.0844,43.8512 194.7207,45.4875 194.7207,47.9419 C194.7207,45.4875 196.357,43.8512 198.8115,43.8512 C201.266,43.8512 202.9023,45.4875 202.9023,47.9419 C202.9023,45.4875 204.5386,43.8512 206.993,43.8512 C209.4475,43.8512 211.0838,45.4875 211.0838,47.9419 C211.0838,45.4875 212.7201,43.8512 215.1746,43.8512 C217.629,43.8512 219.2654,45.4875 219.2654,47.9419 C219.2654,45.4875 220.9017,43.8512 223.3561,43.8512 C225.8106,43.8512 227.4469,45.4875 227.4469,47.9419 C227.4469,45.4875 229.0832,43.8512 231.5377,43.8512 C233.9921,43.8512 235.6284,45.4875 235.6284,47.9419 C235.6284,45.4875 237.2647,43.8512 239.7192,43.8512 C242.1737,43.8512 243.81,45.4875 243.81,47.9419 C243.81,45.4875 245.4463,43.8512 247.9008,43.8512 C250.3552,43.8512 251.9915,45.4875 251.9915,47.9419 C251.9915,45.4875 253.6278,43.8512 256.0823,43.8512 C258.5368,43.8512 260.1731,45.4875 260.1731,47.9419 C260.1731,45.4875 261.8094,43.8512 264.2638,43.8512 C266.7183,43.8512 268.3546,45.4875 268.3546,47.9419 C268.3546,45.4875 269.9909,43.8512 272.4454,43.8512 C274.8998,43.8512 276.5362,45.4875 276.5362,47.9419 C276.5362,45.4875 278.1725,43.8512 280.6269,43.8512 C283.0814,43.8512 284.7177,45.4875 284.7177,47.9419 C284.7177,45.4875 286.354,43.8512 288.8085,43.8512 C291.2629,43.8512 292.8992,45.4875 292.8992,47.9419 C292.8992,45.4875 294.5355,43.8512 296.99,43.8512 C299.4445,43.8512 301.0808,45.4875 301.0808,47.9419 C301.0808,45.4875 302.7171,43.8512 305.1716,43.8512 C307.626,43.8512 309.2623,45.4875 309.2623,47.9419 C309.2623,45.4875 310.8986,43.8512 313.3531,43.8512 C315.8076,43.8512 317.4439,45.4875 317.4439,47.9419 C317.4439,45.4875 319.0802,43.8512 321.5346,43.8512 C323.9891,43.8512 325.6254,45.4875 325.6254,47.9419 C328.0799,47.9419 329.7162,49.5782 329.7162,52.0327 C329.7162,54.4872 328.0799,56.1235 325.6254,56.1235 C328.0799,56.1235 329.7162,57.7598 329.7162,60.2142 C329.7162,62.6687 328.0799,64.305 325.6254,64.305 C328.0799,64.305 329.7162,65.9413 329.7162,68.3958 C329.7162,70.8502 328.0799,72.4866 325.6254,72.4866 C328.0799,72.4866 329.7162,74.1229 329.7162,76.5773 C329.7162,79.0318 328.0799,80.6681 325.6254,80.6681 C328.0799,80.6681 329.7162,82.3044 329.7162,84.7589 C329.7162,87.2133 328.0799,88.8496 325.6254,88.8496 C328.0799,88.8496 329.7162,90.4859 329.7162,92.9404 C329.7162,95.3949 328.0799,97.0312 325.6254,97.0312 C328.0799,97.0312 329.7162,98.6675 329.7162,101.122 C329.7162,103.5764 328.0799,105.2127 325.6254,105.2127 C328.0799,105.2127 329.7162,106.849 329.7162,109.3035 C329.7162,111.758 328.0799,113.3943 325.6254,113.3943 C328.0799,113.3943 329.7162,115.0306 329.7162,117.485 C329.7162,119.9395 328.0799,121.5758 325.6254,121.5758 C328.0799,121.5758 329.7162,123.2121 329.7162,125.6666 C329.7162,128.121 328.0799,129.7574 325.6254,129.7574 C328.0799,129.7574 329.7162,131.3937 329.7162,133.8481 C329.7162,136.3026 328.0799,137.9389 325.6254,137.9389 C328.0799,137.9389 329.7162,139.5752 329.7162,142.0297 C329.7162,144.4841 328.0799,146.1204 325.6254,146.1204 C328.0799,146.1204 329.7162,147.7567 329.7162,150.2112 C329.7162,152.6657 328.0799,154.302 325.6254,154.302 C328.0799,154.302 329.7162,155.9383 329.7162,158.3928 C329.7162,160.8472 328.0799,162.4835 325.6254,162.4835 C328.0799,162.4835 329.7162,164.1198 329.7162,166.5743 C329.7162,169.0288 328.0799,170.6651 325.6254,170.6651 C328.0799,170.6651 329.7162,172.3014 329.7162,174.7558 C329.7162,177.2103 328.0799,178.8466 325.6254,178.8466 C328.0799,178.8466 329.7162,180.4829 329.7162,182.9374 C329.7162,185.3918 328.0799,187.0282 325.6254,187.0282 C328.0799,187.0282 329.7162,188.6645 329.7162,191.1189 C329.7162,193.5734 328.0799,195.2097 325.6254,195.2097 C328.0799,195.2097 329.7162,196.846 329.7162,199.3005 C329.7162,201.7549 328.0799,203.3912 325.6254,203.3912 C328.0799,203.3912 329.7162,205.0275 329.7162,207.482 C329.7162,209.9365 328.0799,211.5728 325.6254,211.5728 C328.0799,211.5728 329.7162,213.2091 329.7162,215.6636 C329.7162,218.118 328.0799,219.7543 325.6254,219.7543 C328.0799,219.7543 329.7162,221.3906 329.7162,223.8451 C329.7162,226.2996 328.0799,227.9359 325.6254,227.9359 C328.0799,227.9359 329.7162,229.5722 329.7162,232.0266 C329.7162,234.4811 328.0799,236.1174 325.6254,236.1174 C325.6254,238.5719 323.1709,240.2082 321.5346,240.2082 C319.0802,240.2082 317.4439,238.5719 317.4439,236.1174 C317.4439,238.5719 314.9894,240.2082 313.3531,240.2082 C310.8986,240.2082 309.2623,238.5719 309.2623,236.1174 C309.2623,238.5719 306.8079,240.2082 305.1716,240.2082 C302.7171,240.2082 301.0808,238.5719 301.0808,236.1174 C301.0808,238.5719 298.6263,240.2082 296.99,240.2082 C294.5355,240.2082 292.8992,238.5719 292.8992,236.1174 C292.8992,238.5719 290.4448,240.2082 288.8085,240.2082 C286.354,240.2082 284.7177,238.5719 284.7177,236.1174 C284.7177,238.5719 282.2632,240.2082 280.6269,240.2082 C278.1725,240.2082 276.5362,238.5719 276.5362,236.1174 C276.5362,238.5719 274.0817,240.2082 272.4454,240.2082 C269.9909,240.2082 268.3546,238.5719 268.3546,236.1174 C268.3546,238.5719 265.9001,240.2082 264.2638,240.2082 C261.8094,240.2082 260.1731,238.5719 260.1731,236.1174 C260.1731,238.5719 257.7186,240.2082 256.0823,240.2082 C253.6278,240.2082 251.9915,238.5719 251.9915,236.1174 C251.9915,238.5719 249.5371,240.2082 247.9008,240.2082 C245.4463,240.2082 243.81,238.5719 243.81,236.1174 C243.81,238.5719 241.3555,240.2082 239.7192,240.2082 C237.2647,240.2082 235.6284,238.5719 235.6284,236.1174 C235.6284,238.5719 233.174,240.2082 231.5377,240.2082 C229.0832,240.2082 227.4469,238.5719 227.4469,236.1174 C227.4469,238.5719 224.9924,240.2082 223.3561,240.2082 C220.9017,240.2082 219.2654,238.5719 219.2654,236.1174 C219.2654,238.5719 216.8109,240.2082 215.1746,240.2082 C212.7201,240.2082 211.0838,238.5719 211.0838,236.1174 C211.0838,238.5719 208.6293,240.2082 206.993,240.2082 C204.5386,240.2082 202.9023,238.5719 202.9023,236.1174 C202.9023,238.5719 200.4478,240.2082 198.8115,240.2082 C196.357,240.2082 194.7207,238.5719 194.7207,236.1174 C194.7207,238.5719 192.2663,240.2082 190.63,240.2082 C188.1755,240.2082 186.5392,238.5719 186.5392,236.1174 C186.5392,238.5719 184.0847,240.2082 182.4484,240.2082 C179.9939,240.2082 178.3576,238.5719 178.3576,236.1174 C178.3576,238.5719 175.9032,240.2082 174.2669,240.2082 C171.8124,240.2082 170.1761,238.5719 170.1761,236.1174 C170.1761,238.5719 167.7216,240.2082 166.0853,240.2082 C163.6309,240.2082 161.9946,238.5719 161.9946,236.1174 C161.9946,238.5719 159.5401,240.2082 157.9038,240.2082 C155.4493,240.2082 153.813,238.5719 153.813,236.1174 C153.813,238.5719 151.3585,240.2082 149.7222,240.2082 C147.2678,240.2082 145.6315,238.5719 145.6315,236.1174 C145.6315,238.5719 143.177,240.2082 141.5407,240.2082 C139.0862,240.2082 137.4499,238.5719 137.4499,236.1174 C137.4499,238.5719 134.9955,240.2082 133.3592,240.2082 C130.9047,240.2082 129.2684,238.5719 129.2684,236.1174 C129.2684,238.5719 126.8139,240.2082 125.1776,240.2082 C122.7231,240.2082 121.0868,238.5719 121.0868,236.1174 C118.6324,236.1174 116.9961,234.4811 116.9961,232.0266 C116.9961,229.5722 118.6324,227.9359 121.0868,227.9359 C118.6324,227.9359 116.9961,226.2996 116.9961,223.8451 C116.9961,221.3906 118.6324,219.7543 121.0868,219.7543 C118.6324,219.7543 116.9961,218.118 116.9961,215.6636 C116.9961,213.2091 118.6324,211.5728 121.0868,211.5728 C118.6324,211.5728 116.9961,209.9365 116.9961,207.482 C116.9961,205.0275 118.6324,203.3912 121.0868,203.3912 C118.6324,203.3912 116.9961,201.7549 116.9961,199.3005 C116.9961,196.846 118.6324,195.2097 121.0868,195.2097 C118.6324,195.2097 116.9961,193.5734 116.9961,191.1189 C116.9961,188.6645 118.6324,187.0282 121.0868,187.0282 C118.6324,187.0282 116.9961,185.3918 116.9961,182.9374 C116.9961,180.4829 118.6324,178.8466 121.0868,178.8466 C118.6324,178.8466 116.9961,177.2103 116.9961,174.7558 C116.9961,172.3014 118.6324,170.6651 121.0868,170.6651 C118.6324,170.6651 116.9961,169.0288 116.9961,166.5743 C116.9961,164.1198 118.6324,162.4835 121.0868,162.4835 C118.6324,162.4835 116.9961,160.8472 116.9961,158.3928 C116.9961,155.9383 118.6324,154.302 121.0868,154.302 C118.6324,154.302 116.9961,152.6657 116.9961,150.2112 C116.9961,147.7567 118.6324,146.1204 121.0868,146.1204 C118.6324,146.1204 116.9961,144.4841 116.9961,142.0297 C116.9961,139.5752 118.6324,137.9389 121.0868,137.9389 C118.6324,137.9389 116.9961,136.3026 116.9961,133.8481 C116.9961,131.3937 118.6324,129.7574 121.0868,129.7574 C118.6324,129.7574 116.9961,128.121 116.9961,125.6666 C116.9961,123.2121 118.6324,121.5758 121.0868,121.5758 C118.6324,121.5758 116.9961,119.9395 116.9961,117.485 C116.9961,115.0306 118.6324,113.3943 121.0868,113.3943 C118.6324,113.3943 116.9961,111.758 116.9961,109.3035 C116.9961,106.849 118.6324,105.2127 121.0868,105.2127 C118.6324,105.2127 116.9961,103.5764 116.9961,101.122 C116.9961,98.6675 118.6324,97.0312 121.0868,97.0312 C118.6324,97.0312 116.9961,95.3949 116.9961,92.9404 C116.9961,90.4859 118.6324,88.8496 121.0868,88.8496 C118.6324,88.8496 116.9961,87.2133 116.9961,84.7589 C116.9961,82.3044 118.6324,80.6681 121.0868,80.6681 C118.6324,80.6681 116.9961,79.0318 116.9961,76.5773 C116.9961,74.1229 118.6324,72.4866 121.0868,72.4866 C118.6324,72.4866 116.9961,70.8502 116.9961,68.3958 C116.9961,65.9413 118.6324,64.305 121.0868,64.305 C118.6324,64.305 116.9961,62.6687 116.9961,60.2142 C116.9961,57.7598 118.6324,56.1235 121.0868,56.1235 C118.6324,56.1235 116.9961,54.4872 116.9961,52.0327 C116.9961,49.5782 118.6324,47.9419 121.0868,47.9419 " fill="#FFFFFF" filter="url(#f1)" style="stroke: #000000; stroke-width: 1.6363085930794703;"/><text fill="#000000" font-family="Arial" font-size="11.4542" lengthAdjust="spacingAndGlyphs" textLength="29.4536" x="208.2203" y="63.7821">Users</text><rect fill="#FFFFFF" filter="url(#f1)" height="662.705" style="stroke: #000000; stroke-width: 1.6363085930794703;" width="457.3483" x="17.9994" y="340.023"/><path d="M58.9071,340.8412 L58.9071,347.4671 L50.7256,355.6486 L17.9994,355.6486 " fill="#FFFFFF" style="stroke: #000000; stroke-width: 1.6363085930794703;"/><text fill="#000000" font-family="Arial" font-size="11.4542" lengthAdjust="spacingAndGlyphs" textLength="32.7262" x="20.4539" y="351.7724">region</text><rect fill="#FFFFFF" filter="url(#f1)" height="240.5374" style="stroke: #000000; stroke-width: 1.6363085930794703;" width="191.4481" x="75.2702" y="742.5549"/><path d="M107.9964,743.3731 L107.9964,749.999 L99.8148,758.1806 L75.2702,758.1806 " fill="#FFFFFF" style="stroke: #000000; stroke-width: 1.6363085930794703;"/><text fill="#000000" font-family="Arial" font-size="11.4542" lengthAdjust="spacingAndGlyphs" textLength="24.5446" x="77.7247" y="754.3043">zone</text><rect fill="#FFFFFF" filter="url(#f1)" height="85.088" style="stroke: #000000; stroke-width: 1.6363085930794703;" width="152.1767" x="94.9059" y="878.3685"/><path d="M125.1776,879.1867 L125.1776,885.8126 L116.9961,893.9942 L94.9059,893.9942 " fill="#FFFFFF" style="stroke: #000000; stroke-width: 1.6363085930794703;"/><text fill="#000000" font-family="Arial" font-size="11.4542" lengthAdjust="spacingAndGlyphs" textLength="22.0902" x="97.3604" y="890.1179">host</text><ellipse cx="218.4472" cy="80.259" fill="#FFFFFF" filter="url(#f1)" rx="6.5452" ry="6.5452" style="stroke: #000000; stroke-width: 1.6363085930794703;"/><path d="M218.4472,86.8043 L218.4472,108.8944 M207.8112,93.3495 L229.0832,93.3495 M218.4472,108.8944 L207.8112,121.1667 M218.4472,108.8944 L229.0832,121.1667 " fill="#FFFFFF" filter="url(#f1)" style="stroke: #000000; stroke-width: 1.6363085930794703;"/><text fill="#000000" font-family="Arial" font-size="11.4542" lengthAdjust="spacingAndGlyphs" textLength="23.7265" x="206.584" y="137.825">User</text><rect fill="#FFFFFF" filter="url(#f1)" height="38.9422" style="stroke: #000000; stroke-width: 1.2272314448096027;" width="69.5431" x="131.7228" y="191.1189"/><rect fill="#FFFFFF" height="4.0908" style="stroke: #000000; stroke-width: 1.2272314448096027;" width="8.1815" x="127.6321" y="195.2097"/><rect fill="#FFFFFF" height="4.0908" style="stroke: #000000; stroke-width: 1.2272314448096027;" width="8.1815" x="127.6321" y="221.8796"/><text fill="#000000" font-family="Arial" font-size="8.1815" lengthAdjust="spacingAndGlyphs" textLength="40.9077" x="146.0405" y="207.1085">&lt;&lt;Exists&gt;&gt;</text><text fill="#000000" font-family="Arial" font-size="11.4542" lengthAdjust="spacingAndGlyphs" textLength="53.18" x="139.9044" y="219.6397">euca2ools</text><rect fill="#FFFFFF" filter="url(#f1)" height="38.9422" style="stroke: #000000; stroke-width: 1.2272314448096027;" width="85.9062" x="229.0832" y="191.1189"/><rect fill="#FFFFFF" height="4.0908" style="stroke: #000000; stroke-width: 1.2272314448096027;" width="8.1815" x="224.9924" y="195.2097"/><rect fill="#FFFFFF" height="4.0908" style="stroke: #000000; stroke-width: 1.2272314448096027;" width="8.1815" x="224.9924" y="221.8796"/><text fill="#000000" font-family="Arial" font-size="8.1815" lengthAdjust="spacingAndGlyphs" textLength="40.9077" x="251.5824" y="207.1085">&lt;&lt;Exists&gt;&gt;</text><text fill="#000000" font-family="Arial" font-size="11.4542" lengthAdjust="spacingAndGlyphs" textLength="69.5431" x="237.2647" y="219.6397">User Console</text><ellipse cx="227.856" cy="413.247" fill="#008000" filter="url(#f1)" rx="6.5452" ry="6.5452" style="stroke: #000000; stroke-width: 1.6363085930794703;"/><text fill="#000000" font-family="Arial" font-size="11.4542" lengthAdjust="spacingAndGlyphs" textLength="33.5443" x="211.0838" y="431.5416">API #1</text><text fill="#FF0000" font-family="Arial" font-size="8.1815" lengthAdjust="spacingAndGlyphs" textLength="38.4533" x="208.6293" y="404.2837">&lt;&lt;NEW&gt;&gt;</text><ellipse cx="443.8487" cy="413.247" fill="#008000" filter="url(#f1)" rx="6.5452" ry="6.5452" style="stroke: #000000; stroke-width: 1.6363085930794703;"/><text fill="#000000" font-family="Arial" font-size="11.4542" lengthAdjust="spacingAndGlyphs" textLength="34.3625" x="426.6675" y="431.5416">API #N</text><text fill="#FF0000" font-family="Arial" font-size="8.1815" lengthAdjust="spacingAndGlyphs" textLength="38.4533" x="424.6221" y="404.2837">&lt;&lt;NEW&gt;&gt;</text><polygon fill="#FFFFFF" filter="url(#f1)" points="303.5352,406.7026,303.5352,424.2921,367.3513,424.2921,367.3513,414.8841,359.1697,406.7026,303.5352,406.7026" style="stroke: #FF0000; stroke-width: 0.8181542965397351;"/><line style="stroke: #FF0000; stroke-width: 0.8181542965397351;" x1="359.1697" x2="359.1697" y1="406.7026" y2="414.8841"/><line style="stroke: #FF0000; stroke-width: 0.8181542965397351;" x1="367.3513" x2="359.1697" y1="414.8841" y2="414.8841"/><text fill="#000000" font-family="Arial" font-size="8.1815" font-weight="bold" lengthAdjust="spacingAndGlyphs" textLength="46.6348" x="308.4442" y="418.6014">Implements</text><rect fill="#FFFFFF" filter="url(#f1)" height="38.9422" style="stroke: #000000; stroke-width: 1.2272314448096027;" width="79.361" x="356.7153" y="513.4717"/><rect fill="#FFFFFF" height="4.0908" style="stroke: #000000; stroke-width: 1.2272314448096027;" width="8.1815" x="352.6245" y="517.5625"/><rect fill="#FFFFFF" height="4.0908" style="stroke: #000000; stroke-width: 1.2272314448096027;" width="8.1815" x="352.6245" y="544.2324"/><text fill="#000000" font-family="Arial" font-size="8.1815" lengthAdjust="spacingAndGlyphs" textLength="38.4533" x="377.1691" y="529.4613">&lt;&lt;NEW&gt;&gt;</text><text fill="#000000" font-family="Arial" font-size="11.4542" lengthAdjust="spacingAndGlyphs" textLength="62.9979" x="364.8968" y="541.9925">New Service</text><ellipse cx="441.8033" cy="648.8755" fill="#FFA500" filter="url(#f1)" rx="6.5452" ry="6.5452" style="stroke: #000000; stroke-width: 1.6363085930794703;"/><text fill="#000000" font-family="Arial" font-size="11.4542" lengthAdjust="spacingAndGlyphs" textLength="13.0905" x="435.2581" y="667.1701">#1</text><text fill="#FF0000" font-family="Arial" font-size="8.1815" lengthAdjust="spacingAndGlyphs" textLength="40.9077" x="421.3495" y="639.9121">&lt;&lt;Exists&gt;&gt;</text><ellipse cx="267.5365" cy="531.0612" fill="#FFA500" filter="url(#f1)" rx="6.5452" ry="6.5452" style="stroke: #000000; stroke-width: 1.6363085930794703;"/><text fill="#000000" font-family="Arial" font-size="11.4542" lengthAdjust="spacingAndGlyphs" textLength="13.0905" x="260.9912" y="549.3559">#2</text><text fill="#FF0000" font-family="Arial" font-size="8.1815" lengthAdjust="spacingAndGlyphs" textLength="40.9077" x="247.0826" y="522.0979">&lt;&lt;Exists&gt;&gt;</text><ellipse cx="149.7222" cy="644.3764" fill="#FFFF00" filter="url(#f1)" rx="6.5452" ry="6.5452" style="stroke: #000000; stroke-width: 1.6363085930794703;"/><text fill="#000000" font-family="Arial" font-size="11.4542" lengthAdjust="spacingAndGlyphs" textLength="13.0905" x="143.177" y="662.671">#3</text><rect fill="#FFFFFF" filter="url(#f1)" height="42.7054" style="stroke: #000000; stroke-width: 1.2272314448096027;" width="54.8163" x="310.0805" y="629.6496"/><rect fill="#FFFFFF" height="4.0908" style="stroke: #000000; stroke-width: 1.2272314448096027;" width="8.1815" x="305.9897" y="633.7404"/><rect fill="#FFFFFF" height="4.0908" style="stroke: #000000; stroke-width: 1.2272314448096027;" width="8.1815" x="305.9897" y="664.1735"/><text fill="#000000" font-family="Arial" font-size="11.4542" lengthAdjust="spacingAndGlyphs" textLength="38.4533" x="318.262" y="648.7624">Service</text><text fill="#000000" font-family="Arial" font-size="11.4542" lengthAdjust="spacingAndGlyphs" textLength="13.0905" x="330.9434" y="661.9336">#1</text><rect fill="#FFFFFF" filter="url(#f1)" height="42.7054" style="stroke: #000000; stroke-width: 1.2272314448096027;" width="54.8163" x="122.7231" y="511.8354"/><rect fill="#FFFFFF" height="4.0908" style="stroke: #000000; stroke-width: 1.2272314448096027;" width="8.1815" x="118.6324" y="515.9262"/><rect fill="#FFFFFF" height="4.0908" style="stroke: #000000; stroke-width: 1.2272314448096027;" width="8.1815" x="118.6324" y="546.3593"/><text fill="#000000" font-family="Arial" font-size="11.4542" lengthAdjust="spacingAndGlyphs" textLength="38.4533" x="130.9047" y="530.9482">Service</text><text fill="#000000" font-family="Arial" font-size="11.4542" lengthAdjust="spacingAndGlyphs" textLength="13.0905" x="143.5861" y="544.1193">#2</text><rect fill="#FFFFFF" filter="url(#f1)" height="42.7054" style="stroke: #000000; stroke-width: 1.2272314448096027;" width="54.8163" x="31.0899" y="629.6496"/><rect fill="#FFFFFF" height="4.0908" style="stroke: #000000; stroke-width: 1.2272314448096027;" width="8.1815" x="26.9991" y="633.7404"/><rect fill="#FFFFFF" height="4.0908" style="stroke: #000000; stroke-width: 1.2272314448096027;" width="8.1815" x="26.9991" y="664.1735"/><text fill="#000000" font-family="Arial" font-size="11.4542" lengthAdjust="spacingAndGlyphs" textLength="38.4533" x="39.2714" y="648.7624">Service</text><text fill="#000000" font-family="Arial" font-size="11.4542" lengthAdjust="spacingAndGlyphs" textLength="13.0905" x="51.9528" y="661.9336">#3</text><ellipse cx="429.531" cy="765.4624" fill="#FFA500" filter="url(#f1)" rx="6.5452" ry="6.5452" style="stroke: #000000; stroke-width: 1.6363085930794703;"/><path d="M429.531,772.0077 L429.531,794.0978 M418.895,778.5529 L440.167,778.5529 M429.531,794.0978 L418.895,806.3702 M429.531,794.0978 L440.167,806.3702 " fill="#FFA500" filter="url(#f1)" style="stroke: #000000; stroke-width: 1.6363085930794703;"/><text fill="#FF0000" font-family="Arial" font-size="11.4542" lengthAdjust="spacingAndGlyphs" textLength="39.2714" x="409.8953" y="823.0285">Existing</text><text fill="#FF0000" font-family="Arial" font-size="11.4542" lengthAdjust="spacingAndGlyphs" textLength="65.4523" x="396.8048" y="836.1996">Dependency</text><text fill="#FF0000" font-family="Arial" font-size="8.1815" lengthAdjust="spacingAndGlyphs" textLength="40.9077" x="409.0771" y="755.6809">&lt;&lt;Exists&gt;&gt;</text><ellipse cx="218.4472" cy="623.1036" fill="#FFA500" filter="url(#f1)" rx="6.5452" ry="6.5452" style="stroke: #000000; stroke-width: 1.6363085930794703;"/><path d="M218.4472,629.6488 L218.4472,651.739 M207.8112,636.1941 L229.0832,636.1941 M218.4472,651.739 L207.8112,664.0113 M218.4472,651.739 L229.0832,664.0113 " fill="#FFA500" filter="url(#f1)" style="stroke: #000000; stroke-width: 1.6363085930794703;"/><text fill="#FF0000" font-family="Arial" font-size="11.4542" lengthAdjust="spacingAndGlyphs" textLength="40.9077" x="197.9933" y="680.6696">Another</text><text fill="#FF0000" font-family="Arial" font-size="11.4542" lengthAdjust="spacingAndGlyphs" textLength="65.4523" x="185.721" y="693.8408">Dependency</text><text fill="#FF0000" font-family="Arial" font-size="8.1815" lengthAdjust="spacingAndGlyphs" textLength="40.9077" x="197.9933" y="613.3221">&lt;&lt;Exists&gt;&gt;</text><ellipse cx="92.0424" cy="387.4752" fill="#FF0000" filter="url(#f1)" rx="6.5452" ry="6.5452" style="stroke: #000000; stroke-width: 1.6363085930794703;"/><path d="M92.0424,394.0204 L92.0424,416.1106 M81.4064,400.5656 L102.6784,400.5656 M92.0424,416.1106 L81.4064,428.3829 M92.0424,416.1106 L102.6784,428.3829 " fill="#FF0000" filter="url(#f1)" style="stroke: #000000; stroke-width: 1.6363085930794703;"/><text fill="#FF0000" font-family="Arial" font-size="11.4542" lengthAdjust="spacingAndGlyphs" textLength="21.272" x="81.4064" y="445.0412">New</text><text fill="#FF0000" font-family="Arial" font-size="11.4542" lengthAdjust="spacingAndGlyphs" textLength="65.4523" x="59.3162" y="458.2123">Dependency</text><text fill="#FF0000" font-family="Arial" font-size="8.1815" lengthAdjust="spacingAndGlyphs" textLength="94.0877" x="44.9985" y="377.6937">&lt;&lt;Depends&gt;&gt; &lt;&lt;NEW&gt;&gt;</text><ellipse cx="206.993" cy="786.7353" fill="#FFFF00" filter="url(#f1)" rx="6.5452" ry="6.5452" style="stroke: #000000; stroke-width: 1.6363085930794703;"/><text fill="#000000" font-family="Arial" font-size="11.4542" lengthAdjust="spacingAndGlyphs" textLength="13.0905" x="200.4478" y="805.0299">#4</text><rect fill="#FFFFFF" filter="url(#f1)" height="42.7054" style="stroke: #000000; stroke-width: 1.2272314448096027;" width="54.8163" x="88.3607" y="772.0085"/><rect fill="#FFFFFF" height="4.0908" style="stroke: #000000; stroke-width: 1.2272314448096027;" width="8.1815" x="84.2699" y="776.0992"/><rect fill="#FFFFFF" height="4.0908" style="stroke: #000000; stroke-width: 1.2272314448096027;" width="8.1815" x="84.2699" y="806.5324"/><text fill="#000000" font-family="Arial" font-size="11.4542" lengthAdjust="spacingAndGlyphs" textLength="38.4533" x="96.5422" y="791.1212">Service</text><text fill="#000000" font-family="Arial" font-size="11.4542" lengthAdjust="spacingAndGlyphs" textLength="13.0905" x="109.2236" y="804.2924">#4</text><ellipse cx="115.3598" cy="922.5489" fill="#FFFF00" filter="url(#f1)" rx="6.5452" ry="6.5452" style="stroke: #000000; stroke-width: 1.6363085930794703;"/><text fill="#000000" font-family="Arial" font-size="11.4542" lengthAdjust="spacingAndGlyphs" textLength="13.0905" x="108.8145" y="940.8435">#5</text><rect fill="#FFFFFF" filter="url(#f1)" height="42.7054" style="stroke: #000000; stroke-width: 1.2272314448096027;" width="54.8163" x="179.9939" y="907.8221"/><rect fill="#FFFFFF" height="4.0908" style="stroke: #000000; stroke-width: 1.2272314448096027;" width="8.1815" x="175.9032" y="911.9129"/><rect fill="#FFFFFF" height="4.0908" style="stroke: #000000; stroke-width: 1.2272314448096027;" width="8.1815" x="175.9032" y="942.346"/><text fill="#000000" font-family="Arial" font-size="11.4542" lengthAdjust="spacingAndGlyphs" textLength="38.4533" x="188.1755" y="926.9349">Service</text><text fill="#000000" font-family="Arial" font-size="11.4542" lengthAdjust="spacingAndGlyphs" textLength="13.0905" x="200.8569" y="940.106">#5</text><polygon fill="#FFFFFF" filter="url(#f1)" points="192.2663,283.1613,192.2663,300.7508,263.4457,300.7508,263.4457,291.3428,255.2641,283.1613,192.2663,283.1613" style="stroke: #FF0000; stroke-width: 0.8181542965397351;"/><line style="stroke: #FF0000; stroke-width: 0.8181542965397351;" x1="255.2641" x2="255.2641" y1="283.1613" y2="291.3428"/><line style="stroke: #FF0000; stroke-width: 0.8181542965397351;" x1="263.4457" x2="255.2641" y1="291.3428" y2="291.3428"/><text fill="#000000" font-family="Arial" font-size="8.1815" font-weight="bold" lengthAdjust="spacingAndGlyphs" textLength="53.9982" x="197.1752" y="295.0601">User Story #1</text><polygon fill="#FFFFFF" filter="url(#f1)" points="407.4408,283.1613,407.4408,300.7508,479.4384,300.7508,479.4384,291.3428,471.2569,283.1613,407.4408,283.1613" style="stroke: #FF0000; stroke-width: 0.8181542965397351;"/><line style="stroke: #FF0000; stroke-width: 0.8181542965397351;" x1="471.2569" x2="471.2569" y1="283.1613" y2="291.3428"/><line style="stroke: #FF0000; stroke-width: 0.8181542965397351;" x1="479.4384" x2="471.2569" y1="291.3428" y2="291.3428"/><text fill="#000000" font-family="Arial" font-size="8.1815" font-weight="bold" lengthAdjust="spacingAndGlyphs" textLength="54.8163" x="412.3498" y="295.0601">User Story #N</text><path d="M206.1708,130.5837 C196.9813,148.9594 184.5732,173.7822 176.0071,190.9144 " fill="none" style="stroke: #000000; stroke-width: 0.8181542965397351; stroke-dasharray: 1.0,3.0;"/><path d="M230.7817,130.3219 C240.1095,148.6894 252.7598,173.6022 261.4993,190.808 " fill="none" style="stroke: #000000; stroke-width: 0.8181542965397351; stroke-dasharray: 1.0,3.0;"/><path d="M181.096,230.5687 C193.7978,247.3351 211.398,270.5674 220.837,283.0263 " fill="none" style="stroke: #000000; stroke-width: 0.8181542965397351;"/><path d="M260.8194,230.5687 C251.6741,247.3351 239.0017,270.5674 232.2061,283.0263 " fill="none" style="stroke: #000000; stroke-width: 0.8181542965397351;"/><path d="M227.4469,300.6371 C227.4469,319.5953 227.4469,364.5349 227.4469,392.1861 " fill="none" style="stroke: #FF0000; stroke-width: 1.6363085930794703;"/><polygon fill="#FF0000" points="227.4469,396.4691,230.7195,389.1057,227.4469,392.3783,224.1743,389.1057,227.4469,396.4691" style="stroke: #FF0000; stroke-width: 0.8181542965397351;"/><path d="M443.4396,300.6371 C443.4396,319.5953 443.4396,364.5349 443.4396,392.1861 " fill="none" style="stroke: #FF0000; stroke-width: 0.8181542965397351; stroke-dasharray: 1.0,3.0;"/><polygon fill="#FF0000" points="443.4396,396.4691,446.7122,389.1057,443.4396,392.3783,440.167,389.1057,443.4396,396.4691" style="stroke: #FF0000; stroke-width: 0.8181542965397351;"/><path d="M263.1135,291.7519 C303.0141,291.7519 367.2916,291.7519 407.3598,291.7519 " fill="none" style="stroke: #000000; stroke-width: 0.8181542965397351; stroke-dasharray: 1.0,3.0;"/><text fill="#000000" font-family="Arial" font-size="8.1815" font-style="italic" lengthAdjust="spacingAndGlyphs" textLength="34.3625" x="317.8529" y="288.9239">Stories...</text><path d="M439.8218,673.9118 C438.111,693.752 435.5886,723.01 433.4696,747.5939 " fill="none" style="stroke: #000000; stroke-width: 1.6363085930794703;"/><polygon fill="#000000" points="440.1736,669.8259,436.2798,676.8806,439.8217,673.9015,442.8008,677.4435,440.1736,669.8259" style="stroke: #000000; stroke-width: 0.8181542965397351;"/><path d="M258.0516,555.8709 C252.2051,569.9023 244.5005,588.3934 237.4423,605.3333 " fill="none" style="stroke: #000000; stroke-width: 1.6363085930794703;"/><polygon fill="#000000" points="259.6494,552.0362,253.7954,557.5734,258.0753,555.812,259.8367,560.092,259.6494,552.0362" style="stroke: #000000; stroke-width: 0.8181542965397351;"/><path d="M138.3188,415.2932 C160.2789,415.2932 182.2381,415.2932 204.1982,415.2932 " fill="none" style="stroke: #000000; stroke-width: 1.6363085930794703;"/><polygon fill="#000000" points="208.298,415.2932,200.9346,412.0206,204.2072,415.2932,200.9346,418.5658,208.298,415.2932" style="stroke: #000000; stroke-width: 0.8181542965397351;"/><path d="M250.6628,415.2932 C268.2597,415.2932 285.8574,415.2932 303.4542,415.2932 " fill="none" style="stroke: #000000; stroke-width: 0.8181542965397351; stroke-dasharray: 1.0,3.0;"/><polygon fill="#000000" points="246.4305,415.2932,253.7939,418.5658,250.5213,415.2932,253.7939,412.0206,246.4305,415.2932" style="stroke: #000000; stroke-width: 0.8181542965397351;"/><path d="M367.5051,415.2932 C385.0799,415.2932 402.6546,415.2932 420.2294,415.2932 " fill="none" style="stroke: #000000; stroke-width: 0.8181542965397351; stroke-dasharray: 1.0,3.0;"/><polygon fill="#000000" points="424.456,415.2932,417.0926,412.0206,420.3652,415.2932,417.0926,418.5658,424.456,415.2932" style="stroke: #000000; stroke-width: 0.8181542965397351;"/><path d="M339.9938,424.1481 C349.6742,442.9853 372.5089,487.4217 385.8358,513.3547 " fill="none" style="stroke: #000000; stroke-width: 0.8181542965397351; stroke-dasharray: 1.0,3.0;"/><path d="M246.3536,429.5283 C258.603,438.6752 274.9514,450.7422 289.6266,461.1098 C315.2144,479.1861 344.7522,499.1074 366.1977,513.4038 " fill="none" style="stroke: #000000; stroke-width: 1.6363085930794703;"/><path d="M435.8152,434.222 C427.0651,455.9473 412.7818,491.4086 403.908,513.4398 " fill="none" style="stroke: #000000; stroke-width: 1.6363085930794703;"/><path d="M403.6552,552.8266 C411.7132,573.5472 424.375,606.1056 432.8764,627.9667 " fill="none" style="stroke: #FF0000; stroke-width: 1.6363085930794703;"/><polygon fill="#FF0000" points="434.4138,631.9192,434.7962,623.8704,432.9316,628.1064,428.6957,626.2418,434.4138,631.9192" style="stroke: #FF0000; stroke-width: 0.8181542965397351;"/><path d="M356.586,533.1074 C335.1864,533.1074 313.7875,533.1074 292.3887,533.1074 " fill="none" style="stroke: #000000; stroke-width: 1.6363085930794703;"/><polygon fill="#000000" points="288.1089,533.1074,295.4723,536.38,292.1997,533.1074,295.4723,529.8348,288.1089,533.1074" style="stroke: #000000; stroke-width: 0.8181542965397351;"/><path d="M149.7222,554.4424 C149.7222,576.729 149.7222,611.3295 149.7222,632.4739 " fill="none" style="stroke: #FF0000; stroke-width: 1.6363085930794703;"/><polygon fill="#FF0000" points="149.7222,636.7725,152.9949,629.4091,149.7222,632.6817,146.4496,629.4091,149.7222,636.7725" style="stroke: #FF0000; stroke-width: 0.8181542965397351;"/><path d="M85.0588,672.3246 C105.5018,688.965 133.931,713.0122 157.0856,736.0097 C171.7969,750.6211 187.2624,768.8864 197.0066,780.8061 " fill="none" style="stroke: #FF0000; stroke-width: 1.6363085930794703;"/><polygon fill="#FF0000" points="199.5977,783.992,197.4908,776.2144,197.0167,780.8183,192.4128,780.3441,199.5977,783.992" style="stroke: #FF0000; stroke-width: 0.8181542965397351;"/><path d="M115.3598,814.8004 C115.3598,841.3863 115.3598,886.141 115.3598,911.0268 " fill="none" style="stroke: #FF0000; stroke-width: 1.6363085930794703;"/><polygon fill="#FF0000" points="115.3598,915.1388,118.6324,907.7755,115.3598,911.0481,112.0871,907.7755,115.3598,915.1388" style="stroke: #FF0000; stroke-width: 0.8181542965397351;"/><path d="M234.2834,908.2492 C246.6907,897.0347 260.0643,882.065 266.7183,865.2781 C309.7966,756.5994 285.1628,611.7492 273.0435,556.1614 " fill="none" style="stroke: #FF0000; stroke-width: 1.6363085930794703;"/><polygon fill="#FF0000" points="272.123,552.0011,270.5183,559.8975,273.0067,555.9952,276.909,558.4836,272.123,552.0011" style="stroke: #FF0000; stroke-width: 0.8181542965397351;"/><path d="M179.7207,929.0941 C160.773,929.0941 141.8246,929.0941 122.877,929.0941 " fill="none" style="stroke: #000000; stroke-width: 1.6363085930794703;"/><path d="M364.4877,650.9216 C383.4141,650.9216 402.3405,650.9216 421.266,650.9216 " fill="none" style="stroke: #000000; stroke-width: 1.6363085930794703;"/><path d="M176.8751,533.1074 C200.2482,533.1074 223.622,533.1074 246.9959,533.1074 " fill="none" style="stroke: #000000; stroke-width: 1.6363085930794703;"/><path d="M85.2926,650.9216 C104.2525,650.9216 123.2124,650.9216 142.1715,650.9216 " fill="none" style="stroke: #000000; stroke-width: 1.6363085930794703;"/><path d="M142.5634,793.2805 C161.5233,793.2805 180.4832,793.2805 199.4423,793.2805 " fill="none" style="stroke: #000000; stroke-width: 1.6363085930794703;"/></g></svg>